<svg id="Layer_1" data-name="Layer 1" xmlns="http://www.w3.org/2000/svg" viewBox="0 0 500 500"><defs><style>.cls-1{fill:#f5f5f5;}.cls-2{fill:#d32f2f;}.cls-3{fill:#fff;}</style></defs><circle class="cls-1" cx="250" cy="250" r="250"/><path class="cls-2" d="M410.78,325.67c-13.08-42.7-42.32-68.5-86.2-77.52-4.72-1-9.59-.6-14.24-2h-9a7,7,0,0,1-3.42.73,94.8,94.8,0,0,0-22.67,4,109.3,109.3,0,0,0-74.58,134.9c3.38,12.06,9.54,22.78,15.78,33.56q44,76,87.56,152.3c.51.89.79,2,1.83,2.54,1.05-.55,1.33-1.65,1.84-2.54q16.41-28.54,32.79-57.09,29.64-51.49,59.32-103C415.53,384.45,419.92,355.53,410.78,325.67ZM306,418.65A62.63,62.63,0,1,1,368.6,356,62.62,62.62,0,0,1,306,418.65Z" transform="translate(-56 -146)"/><ellipse class="cls-3" cx="250" cy="210.02" rx="76.25" ry="76.28"/><path class="cls-2" d="M306,314.66a41.36,41.36,0,0,0-.45,82.72c22.51.21,41.38-18.27,41.59-40.71A41.21,41.21,0,0,0,306,314.66Z" transform="translate(-56 -146)"/></svg>