<svg id="Layer_1" data-name="Layer 1" xmlns="http://www.w3.org/2000/svg" viewBox="0 0 100 100"><defs><style>.cls-1{fill:#fff;}.cls-2{fill:#052d7c;}.cls-3{fill:none;stroke:#052d7c;stroke-miterlimit:10;stroke-width:3px;}</style></defs><circle class="cls-1" cx="50" cy="50" r="50"/><path class="cls-2" d="M371.84,341.75a2.1,2.1,0,0,1-.72,1.33l-22.4,26.4a10.31,10.31,0,0,1-3.23,2.51c-3.21,1.65-6.39,3.36-9.59,5.06-.72.38-1.44.8-2.2.1s-.43-1.34-.17-2.07c1.24-3.45,2.45-6.91,3.67-10.37a11.24,11.24,0,0,1,2.15-3.5Q350.41,348.1,361.46,335c.89-1,1.7-1.18,2.77-.27,2.19,1.85,4.43,3.64,6.65,5.46C371.38,340.61,371.88,341,371.84,341.75ZM345.59,365c.57.47,1.07.94,1.63,1.32s.79-.26,1-.55q8.19-9.65,16.34-19.3c.4-.47.93-.84.11-1.49s-1.14-.66-1.8.11c-5.52,6.36-11.09,12.69-16.64,19C346.05,364.4,345.85,364.68,345.59,365Zm-2.12-1.77c.32-.4.58-.76.88-1.1q8.16-9.31,16.32-18.63c.39-.45,1.15-.82.21-1.61s-1.29-.42-1.89.3c-2.9,3.48-5.85,6.92-8.77,10.38q-3.74,4.4-7.44,8.8c-.22.27-.74.53-.38,1A7,7,0,0,0,343.47,363.25Zm-6.36,10.05c2.88-1.48,5.26-2.71,7.66-3.91.79-.4.89-.74.16-1.32-1.27-1-2.51-2-3.73-3-.58-.5-1-.54-1.28.22C339,367.76,338.16,370.29,337.11,373.3Zm26-35.82c-.38.41-.73.77-1.06,1.15s0,.71.3,1c1.29,1,2.6,2.06,3.87,3.14.62.52,1,.68,1.66-.07s.33-1.13-.28-1.6c-1.26-1-2.49-2-3.74-3C363.64,337.86,363.41,337.7,363.11,337.48Z" transform="translate(-291.84 -315.66)"/><path class="cls-3" d="M369.74,365.86l-3.21,5.58a.48.48,0,0,1-.84,0L363.34,367a.48.48,0,0,0-.91.23A21.17,21.17,0,1,1,330.18,350a.5.5,0,0,1,.68.18l1.39,2.45a.5.5,0,0,0,.82,0l5.15-7.33,5-7.11a.49.49,0,0,0-.43-.76l-8.67.7-8.93.72a.48.48,0,0,0-.38.72l1.47,2.57a.47.47,0,0,1-.17.64,29.44,29.44,0,0,0-10.4,39.83,26.9,26.9,0,0,0,8.71,9.22,29.42,29.42,0,0,0,46.21-25.8A.48.48,0,0,0,369.74,365.86Z" transform="translate(-291.84 -315.66)"/></svg>